<?xml version="1.0" encoding="UTF-8"?>
<svg version="1.1" xmlns="http://www.w3.org/2000/svg" width="612" height="408">
<path d="M0 0 C2.61579023 2.12955039 4.98720651 4.36394991 7.26953125 6.84765625 C8.41421875 7.89953125 8.41421875 7.89953125 9.58203125 8.97265625 C20.03637802 20.15637605 26.71328449 33.58462743 31.58203125 47.97265625 C31.81229004 48.65142822 32.04254883 49.3302002 32.27978516 50.02954102 C36.36305865 62.76617877 37.79678437 75.2653156 38.33203125 88.53515625 C38.42778093 90.8358016 38.52710072 93.13601249 38.63780212 95.43598938 C38.70577648 96.85126894 38.76526468 98.26698982 38.81495667 99.68302917 C38.98438557 103.24628926 39.23551286 104.79662867 41.26953125 107.84765625 C41.26953125 108.83765625 41.26953125 109.82765625 41.26953125 110.84765625 C41.92953125 110.84765625 42.58953125 110.84765625 43.26953125 110.84765625 C44.99609375 112.96484375 44.99609375 112.96484375 46.89453125 115.72265625 C47.52617187 116.62757813 48.1578125 117.5325 48.80859375 118.46484375 C50.26953125 120.84765625 50.26953125 120.84765625 50.26953125 122.84765625 C50.92953125 122.84765625 51.58953125 122.84765625 52.26953125 122.84765625 C52.37265625 123.48703125 52.47578125 124.12640625 52.58203125 124.78515625 C52.80890625 125.46578125 53.03578125 126.14640625 53.26953125 126.84765625 C54.25953125 127.17765625 55.24953125 127.50765625 56.26953125 127.84765625 C57.99609375 129.89453125 57.99609375 129.89453125 59.89453125 132.59765625 C60.59320313 133.58765625 61.291875 134.57765625 62.01171875 135.59765625 C62.75679688 136.67015625 63.501875 137.74265625 64.26953125 138.84765625 C65.06321168 139.97307285 65.8574886 141.09806901 66.65234375 142.22265625 C80.41847757 161.78371989 80.41847757 161.78371989 79.26953125 173.84765625 C77.25450236 177.59977901 75.81486983 179.4840972 72.26953125 181.84765625 C64.94549449 182.92388012 58.76967834 182.86103342 52.58203125 178.53515625 C49.97783776 176.44742467 47.61792327 174.21355181 45.26953125 171.84765625 C45.17978027 172.58701416 45.0900293 173.32637207 44.99755859 174.08813477 C43.24421889 188.12249456 41.5894828 201.09687681 35.26953125 213.84765625 C34.57537109 215.41966797 34.57537109 215.41966797 33.8671875 217.0234375 C30.45156081 224.46969292 26.03233872 230.99264386 20.26953125 236.84765625 C19.60953125 236.84765625 18.94953125 236.84765625 18.26953125 236.84765625 C17.60953125 238.16765625 16.94953125 239.48765625 16.26953125 240.84765625 C15.60953125 240.84765625 14.94953125 240.84765625 14.26953125 240.84765625 C14.03492188 241.4303125 13.8003125 242.01296875 13.55859375 242.61328125 C7.23450019 253.57504342 -12.74762073 260.87520388 -24.3203125 264.0390625 C-26.00833984 264.43931641 -26.00833984 264.43931641 -27.73046875 264.84765625 C-28.96925781 265.14542969 -30.20804688 265.44320313 -31.484375 265.75 C-59.51343612 271.75094739 -93.60963233 268.86408208 -120.73046875 259.84765625 C-121.66632813 259.5640625 -122.6021875 259.28046875 -123.56640625 258.98828125 C-131.55684415 256.37822417 -138.59134018 252.22518179 -145.73046875 247.84765625 C-146.30845215 247.49445313 -146.88643555 247.14125 -147.48193359 246.77734375 C-148.93552912 245.8574005 -150.33851813 244.85845247 -151.73046875 243.84765625 C-151.73046875 243.18765625 -151.73046875 242.52765625 -151.73046875 241.84765625 C-152.30925781 241.5846875 -152.88804687 241.32171875 -153.484375 241.05078125 C-159.5824036 237.78435897 -164.6354248 232.35037156 -168.73046875 226.84765625 C-168.73046875 226.18765625 -168.73046875 225.52765625 -168.73046875 224.84765625 C-169.39046875 224.84765625 -170.05046875 224.84765625 -170.73046875 224.84765625 C-172.75784298 221.19550693 -174.74579296 217.52314923 -176.73046875 213.84765625 C-177.50197266 212.47673828 -177.50197266 212.47673828 -178.2890625 211.078125 C-181.94744579 204.2839846 -184.14052732 197.55252908 -185.90649414 190.07788086 C-187.24010969 184.68486968 -189.14376458 181.30670489 -193.234375 177.41796875 C-203.64433109 166.49159186 -209.41643965 150.0440014 -209.83203125 135.2265625 C-208.90046594 115.33098906 -199.1756189 101.34268915 -186.87890625 86.57421875 C-186.3595752 85.94974854 -185.84024414 85.32527832 -185.30517578 84.68188477 C-184.26334833 83.46835769 -183.19116363 82.28019045 -182.08935547 81.12084961 C-178.02414584 76.76597978 -176.42853645 72.92530354 -175.10546875 67.16015625 C-174.69611098 65.55284897 -174.28465012 63.94607586 -173.87109375 62.33984375 C-173.67708984 61.56608398 -173.48308594 60.79232422 -173.28320312 59.99511719 C-169.30628459 44.54415632 -163.21330953 29.69224182 -153.73046875 16.84765625 C-153.20453125 16.08839844 -152.67859375 15.32914063 -152.13671875 14.546875 C-149.2719575 10.50116164 -146.21192201 7.27530496 -142.34375 4.171875 C-140.67369696 2.85695279 -140.67369696 2.85695279 -139.1484375 1.1796875 C-137.73046875 -0.15234375 -137.73046875 -0.15234375 -135.73046875 -0.15234375 C-135.73046875 -0.81234375 -135.73046875 -1.47234375 -135.73046875 -2.15234375 C-134.26513672 -3.24975586 -134.26513672 -3.24975586 -132.22265625 -4.4296875 C-131.48273438 -4.86087891 -130.7428125 -5.29207031 -129.98046875 -5.73632812 C-128.80484375 -6.40631836 -128.80484375 -6.40631836 -127.60546875 -7.08984375 C-126.46464844 -7.7540332 -126.46464844 -7.7540332 -125.30078125 -8.43164062 C-87.49002831 -30.30320547 -34.74008409 -26.39839479 0 0 Z " fill="#FDE68B" transform="translate(370.73046875,77.15234375)"/>
<path d="M0 0 C2.61579023 2.12955039 4.98720651 4.36394991 7.26953125 6.84765625 C8.41421875 7.89953125 8.41421875 7.89953125 9.58203125 8.97265625 C20.03637802 20.15637605 26.71328449 33.58462743 31.58203125 47.97265625 C31.81229004 48.65142822 32.04254883 49.3302002 32.27978516 50.02954102 C36.36305865 62.76617877 37.79678437 75.2653156 38.33203125 88.53515625 C38.42778093 90.8358016 38.52710072 93.13601249 38.63780212 95.43598938 C38.70577648 96.85126894 38.76526468 98.26698982 38.81495667 99.68302917 C38.98438557 103.24628926 39.23551286 104.79662867 41.26953125 107.84765625 C41.26953125 108.83765625 41.26953125 109.82765625 41.26953125 110.84765625 C41.92953125 110.84765625 42.58953125 110.84765625 43.26953125 110.84765625 C44.99609375 112.96484375 44.99609375 112.96484375 46.89453125 115.72265625 C47.52617187 116.62757813 48.1578125 117.5325 48.80859375 118.46484375 C50.26953125 120.84765625 50.26953125 120.84765625 50.26953125 122.84765625 C50.92953125 122.84765625 51.58953125 122.84765625 52.26953125 122.84765625 C52.37265625 123.48703125 52.47578125 124.12640625 52.58203125 124.78515625 C52.80890625 125.46578125 53.03578125 126.14640625 53.26953125 126.84765625 C54.25953125 127.17765625 55.24953125 127.50765625 56.26953125 127.84765625 C57.99609375 129.89453125 57.99609375 129.89453125 59.89453125 132.59765625 C60.59320313 133.58765625 61.291875 134.57765625 62.01171875 135.59765625 C62.75679688 136.67015625 63.501875 137.74265625 64.26953125 138.84765625 C65.06321168 139.97307285 65.8574886 141.09806901 66.65234375 142.22265625 C80.41847757 161.78371989 80.41847757 161.78371989 79.26953125 173.84765625 C77.25450236 177.59977901 75.81486983 179.4840972 72.26953125 181.84765625 C64.94549449 182.92388012 58.76967834 182.86103342 52.58203125 178.53515625 C49.97783776 176.44742467 47.61792327 174.21355181 45.26953125 171.84765625 C45.17978027 172.58701416 45.0900293 173.32637207 44.99755859 174.08813477 C43.24421889 188.12249456 41.5894828 201.09687681 35.26953125 213.84765625 C34.57537109 215.41966797 34.57537109 215.41966797 33.8671875 217.0234375 C30.45156081 224.46969292 26.03233872 230.99264386 20.26953125 236.84765625 C19.60953125 236.84765625 18.94953125 236.84765625 18.26953125 236.84765625 C17.60953125 238.16765625 16.94953125 239.48765625 16.26953125 240.84765625 C15.60953125 240.84765625 14.94953125 240.84765625 14.26953125 240.84765625 C14.03492188 241.4303125 13.8003125 242.01296875 13.55859375 242.61328125 C7.23450019 253.57504342 -12.74762073 260.87520388 -24.3203125 264.0390625 C-26.00833984 264.43931641 -26.00833984 264.43931641 -27.73046875 264.84765625 C-28.96925781 265.14542969 -30.20804688 265.44320313 -31.484375 265.75 C-59.51343612 271.75094739 -93.60963233 268.86408208 -120.73046875 259.84765625 C-121.66632813 259.5640625 -122.6021875 259.28046875 -123.56640625 258.98828125 C-131.55684415 256.37822417 -138.59134018 252.22518179 -145.73046875 247.84765625 C-146.30845215 247.49445313 -146.88643555 247.14125 -147.48193359 246.77734375 C-148.93552912 245.8574005 -150.33851813 244.85845247 -151.73046875 243.84765625 C-151.73046875 243.18765625 -151.73046875 242.52765625 -151.73046875 241.84765625 C-152.30925781 241.5846875 -152.88804687 241.32171875 -153.484375 241.05078125 C-159.5824036 237.78435897 -164.6354248 232.35037156 -168.73046875 226.84765625 C-168.73046875 226.18765625 -168.73046875 225.52765625 -168.73046875 224.84765625 C-169.39046875 224.84765625 -170.05046875 224.84765625 -170.73046875 224.84765625 C-172.75784298 221.19550693 -174.74579296 217.52314923 -176.73046875 213.84765625 C-177.50197266 212.47673828 -177.50197266 212.47673828 -178.2890625 211.078125 C-181.94744579 204.2839846 -184.14052732 197.55252908 -185.90649414 190.07788086 C-187.24010969 184.68486968 -189.14376458 181.30670489 -193.234375 177.41796875 C-203.64433109 166.49159186 -209.41643965 150.0440014 -209.83203125 135.2265625 C-208.90046594 115.33098906 -199.1756189 101.34268915 -186.87890625 86.57421875 C-186.3595752 85.94974854 -185.84024414 85.32527832 -185.30517578 84.68188477 C-184.26334833 83.46835769 -183.19116363 82.28019045 -182.08935547 81.12084961 C-178.02414584 76.76597978 -176.42853645 72.92530354 -175.10546875 67.16015625 C-174.69611098 65.55284897 -174.28465012 63.94607586 -173.87109375 62.33984375 C-173.67708984 61.56608398 -173.48308594 60.79232422 -173.28320312 59.99511719 C-169.30628459 44.54415632 -163.21330953 29.69224182 -153.73046875 16.84765625 C-153.20453125 16.08839844 -152.67859375 15.32914063 -152.13671875 14.546875 C-149.2719575 10.50116164 -146.21192201 7.27530496 -142.34375 4.171875 C-140.67369696 2.85695279 -140.67369696 2.85695279 -139.1484375 1.1796875 C-137.73046875 -0.15234375 -137.73046875 -0.15234375 -135.73046875 -0.15234375 C-135.73046875 -0.81234375 -135.73046875 -1.47234375 -135.73046875 -2.15234375 C-134.26513672 -3.24975586 -134.26513672 -3.24975586 -132.22265625 -4.4296875 C-131.48273438 -4.86087891 -130.7428125 -5.29207031 -129.98046875 -5.73632812 C-128.80484375 -6.40631836 -128.80484375 -6.40631836 -127.60546875 -7.08984375 C-126.46464844 -7.7540332 -126.46464844 -7.7540332 -125.30078125 -8.43164062 C-87.49002831 -30.30320547 -34.74008409 -26.39839479 0 0 Z M-101.73046875 -9.15234375 C-102.92285156 -8.79011719 -104.11523438 -8.42789063 -105.34375 -8.0546875 C-118.49417021 -3.81493454 -128.87679735 3.29099268 -138.73046875 12.84765625 C-139.354375 13.39808594 -139.97828125 13.94851562 -140.62109375 14.515625 C-153.5894169 26.34483868 -162.31089664 46.73009088 -165.765625 63.7265625 C-168.10719625 75.07268635 -171.09288715 81.86998269 -179.14208984 90.14599609 C-193.51612016 105.54516475 -201.57484383 120.4537788 -200.87109375 141.70703125 C-200.58510914 146.06035248 -199.46200851 149.86959291 -197.73046875 153.84765625 C-197.3128125 154.83185547 -197.3128125 154.83185547 -196.88671875 155.8359375 C-193.01274496 164.16832077 -187.72734499 173.75422282 -180.73046875 179.84765625 C-178.02238724 180.88018561 -178.02238724 180.88018561 -175.73046875 180.84765625 C-173.3915911 177.26707109 -172.08228002 174.03155405 -170.98046875 169.91015625 C-167.33373144 157.78611542 -161.34392205 147.8171514 -153.90625 137.70800781 C-151.09968107 133.8863357 -148.71000669 130.18636955 -146.73046875 125.84765625 C-144.75046875 125.84765625 -142.77046875 125.84765625 -140.73046875 125.84765625 C-140.86857993 132.20077032 -143.43171033 135.7146799 -147.234375 140.7109375 C-148.92165637 142.68597316 -148.92165637 142.68597316 -148.73046875 144.84765625 C-130.61756791 145.28723613 -130.61756791 145.28723613 -112.77734375 142.5703125 C-110.15878843 141.94924489 -107.71710761 141.57050115 -105.04296875 141.34765625 C-101.55479143 141.02758005 -98.30867176 140.29068765 -94.91796875 139.41015625 C-85.25428926 136.91156231 -74.75479562 134.38871666 -64.73046875 135.84765625 C-62.60679886 137.33100051 -61.89095602 138.27664718 -61.19140625 140.765625 C-60.75335252 152.33422569 -67.13197018 164.15772314 -74.578125 172.67578125 C-83.9764885 182.15942936 -96.74691002 190.98060776 -110.54150391 191.17700195 C-111.2226123 191.17144287 -111.9037207 191.16588379 -112.60546875 191.16015625 C-113.31364746 191.1552417 -114.02182617 191.15032715 -114.75146484 191.14526367 C-120.17876321 191.02336513 -123.96543067 190.40665818 -128.73046875 187.84765625 C-130.02984375 186.45546875 -130.02984375 186.45546875 -131.35546875 185.03515625 C-133.71083711 182.85546453 -134.70275444 182.84689559 -138.00390625 182.9375 C-141.61406145 183.45593948 -145.15936508 184.10908708 -148.73046875 184.84765625 C-154.56276142 185.98392035 -160.35027342 186.16907143 -166.2734375 186.36523438 C-171.77721625 186.56918451 -171.77721625 186.56918451 -176.73046875 188.84765625 C-175.49707433 205.80682959 -163.58374883 221.66906679 -151.54296875 232.97265625 C-131.57640175 249.94249591 -108.24580092 255.91945969 -82.73046875 258.84765625 C-81.51991821 258.99122559 -81.51991821 258.99122559 -80.28491211 259.13769531 C-51.67609959 262.30039316 -20.9204527 259.29611734 2.89453125 241.66015625 C17.79516028 229.20134353 27.55665372 215.54471918 33.26953125 196.84765625 C33.54168457 195.96480957 33.81383789 195.08196289 34.09423828 194.17236328 C36.30327058 186.3097722 36.66163129 178.98288365 36.51953125 170.84765625 C36.51179688 169.07648438 36.51179688 169.07648438 36.50390625 167.26953125 C36.43770611 159.7558153 36.00559167 152.32466072 35.26953125 144.84765625 C40.05224609 146.47998047 40.05224609 146.47998047 42.0078125 149.7890625 C42.52730469 150.98402344 43.04679688 152.17898437 43.58203125 153.41015625 C47.43343493 161.75504258 52.72289376 169.75239245 61.26953125 173.84765625 C64.12758756 174.26132229 66.34428856 174.14018052 69.26953125 173.84765625 C71.52685728 171.99772839 71.52685728 171.99772839 71.61328125 169.17578125 C71.19388136 165.11522779 69.73106143 162.10029215 67.76953125 158.59765625 C67.40786865 157.93725342 67.04620605 157.27685059 66.67358398 156.59643555 C63.97011393 151.79111271 60.89741731 147.50988001 57.33203125 143.296875 C54.24488122 139.63088434 51.42776636 135.77279012 48.56640625 131.9296875 C47.02271345 129.8583038 45.47047087 127.79326698 43.91015625 125.734375 C43.141875 124.71988281 42.37359375 123.70539063 41.58203125 122.66015625 C40.89753906 121.75910156 40.21304688 120.85804688 39.5078125 119.9296875 C38.76917969 118.91261719 38.03054688 117.89554688 37.26953125 116.84765625 C36.74746094 116.20183594 36.22539062 115.55601562 35.6875 114.890625 C30.99582229 108.68693742 30.51277616 103.85906161 30.64453125 96.22265625 C30.27681764 66.00063346 22.73069484 35.04775609 1.39453125 12.59765625 C-11.06130719 0.74529835 -26.37935073 -5.75155004 -42.73046875 -10.15234375 C-43.84035156 -10.47332031 -44.95023438 -10.79429688 -46.09375 -11.125 C-63.89558484 -15.53952652 -84.38683745 -15.12952742 -101.73046875 -9.15234375 Z " fill="#13120F" transform="translate(370.73046875,77.15234375)"/>
<path d="M0 0 C2.61579023 2.12955039 4.98720651 4.36394991 7.26953125 6.84765625 C8.41421875 7.89953125 8.41421875 7.89953125 9.58203125 8.97265625 C20.03637802 20.15637605 26.71328449 33.58462743 31.58203125 47.97265625 C31.81229004 48.65142822 32.04254883 49.3302002 32.27978516 50.02954102 C36.36305865 62.76617877 37.79678437 75.2653156 38.33203125 88.53515625 C38.42778093 90.8358016 38.52710072 93.13601249 38.63780212 95.43598938 C38.70577648 96.85126894 38.76526468 98.26698982 38.81495667 99.68302917 C38.98438557 103.24628926 39.23551286 104.79662867 41.26953125 107.84765625 C41.26953125 108.83765625 41.26953125 109.82765625 41.26953125 110.84765625 C41.92953125 110.84765625 42.58953125 110.84765625 43.26953125 110.84765625 C44.99609375 112.96484375 44.99609375 112.96484375 46.89453125 115.72265625 C47.52617187 116.62757813 48.1578125 117.5325 48.80859375 118.46484375 C50.26953125 120.84765625 50.26953125 120.84765625 50.26953125 122.84765625 C50.92953125 122.84765625 51.58953125 122.84765625 52.26953125 122.84765625 C52.37265625 123.48703125 52.47578125 124.12640625 52.58203125 124.78515625 C52.80890625 125.46578125 53.03578125 126.14640625 53.26953125 126.84765625 C54.25953125 127.17765625 55.24953125 127.50765625 56.26953125 127.84765625 C57.99609375 129.89453125 57.99609375 129.89453125 59.89453125 132.59765625 C60.59320313 133.58765625 61.291875 134.57765625 62.01171875 135.59765625 C62.75679687 136.67015625 63.501875 137.74265625 64.26953125 138.84765625 C65.06321168 139.97307285 65.8574886 141.09806901 66.65234375 142.22265625 C80.41847757 161.78371989 80.41847757 161.78371989 79.26953125 173.84765625 C77.25450236 177.59977901 75.81486983 179.4840972 72.26953125 181.84765625 C64.94549449 182.92388012 58.76967834 182.86103342 52.58203125 178.53515625 C49.97783776 176.44742467 47.61792327 174.21355181 45.26953125 171.84765625 C45.17454346 172.59748779 45.07955566 173.34731934 44.98168945 174.11987305 C41.42282774 201.60442347 41.42282774 201.60442347 36.26953125 211.84765625 C34.28953125 209.37265625 34.28953125 209.37265625 32.26953125 206.84765625 C31.27953125 207.17765625 30.28953125 207.50765625 29.26953125 207.84765625 C29.45128906 207.1928125 29.63304687 206.53796875 29.8203125 205.86328125 C30.07167969 204.950625 30.32304687 204.03796875 30.58203125 203.09765625 C30.82566406 202.2159375 31.06929687 201.33421875 31.3203125 200.42578125 C31.63355469 199.245 31.94679688 198.06421875 32.26953125 196.84765625 C32.64984497 195.68991699 32.64984497 195.68991699 33.0378418 194.50878906 C36.0464225 184.46772883 35.60315437 174.46780286 35.45703125 164.09765625 C35.44195229 162.22527122 35.42826959 160.3528744 35.41601562 158.48046875 C35.38327564 153.93590191 35.3316722 149.39191226 35.26953125 144.84765625 C39.8888831 145.41641245 39.8888831 145.41641245 41.56811523 147.31884766 C41.88079346 147.93937012 42.19347168 148.55989258 42.515625 149.19921875 C43.05449341 150.22450684 43.05449341 150.22450684 43.60424805 151.27050781 C44.15012573 152.36057129 44.15012573 152.36057129 44.70703125 153.47265625 C48.90759367 161.37448044 52.91259489 168.66918807 61.26953125 172.84765625 C64.07708801 173.20958806 66.41480419 173.08958227 69.26953125 172.84765625 C70.55357144 171.77270227 70.55357144 171.77270227 70.55078125 169.23828125 C70.20909911 165.1191132 68.75203956 162.13775207 66.76953125 158.59765625 C66.40786865 157.93725342 66.04620605 157.27685059 65.67358398 156.59643555 C62.97011393 151.79111271 59.89741731 147.50988001 56.33203125 143.296875 C53.24488122 139.63088434 50.42776636 135.77279012 47.56640625 131.9296875 C46.02271345 129.8583038 44.47047087 127.79326698 42.91015625 125.734375 C42.141875 124.71988281 41.37359375 123.70539063 40.58203125 122.66015625 C39.89753906 121.75910156 39.21304688 120.85804688 38.5078125 119.9296875 C37.76917969 118.91261719 37.03054688 117.89554688 36.26953125 116.84765625 C35.74746094 116.20183594 35.22539062 115.55601562 34.6875 114.890625 C29.99582229 108.68693742 29.51277616 103.85906161 29.64453125 96.22265625 C29.28110582 66.35307496 21.91582543 35.39893556 0.89453125 13.09765625 C-11.39258817 1.50082444 -26.6729444 -4.83056881 -42.73046875 -9.15234375 C-43.84035156 -9.47332031 -44.95023438 -9.79429688 -46.09375 -10.125 C-63.89558484 -14.53952652 -84.38683745 -14.12952742 -101.73046875 -8.15234375 C-102.92285156 -7.79011719 -104.11523438 -7.42789063 -105.34375 -7.0546875 C-118.40480022 -2.84374781 -129.04876432 4.19939467 -138.73046875 13.84765625 C-139.74173828 14.82412109 -139.74173828 14.82412109 -140.7734375 15.8203125 C-153.99316152 29.51499666 -161.5665493 48.28053429 -165.4309082 66.64355469 C-167.76119399 77.57964488 -171.71030438 84.11303953 -179.73046875 91.84765625 C-180.33632812 92.45480469 -180.9421875 93.06195313 -181.56640625 93.6875 C-181.95054687 94.07035156 -182.3346875 94.45320313 -182.73046875 94.84765625 C-183.39046875 93.19765625 -184.05046875 91.54765625 -184.73046875 89.84765625 C-187.84831988 90.49410286 -187.84831988 90.49410286 -188.73046875 92.84765625 C-189.39046875 92.84765625 -190.05046875 92.84765625 -190.73046875 92.84765625 C-189.27843735 89.68481558 -187.50104732 87.08350317 -185.35546875 84.34765625 C-184.77023438 83.59484375 -184.185 82.84203125 -183.58203125 82.06640625 C-181.73046875 79.84765625 -181.73046875 79.84765625 -179.66015625 78.09765625 C-176.87787075 74.85353388 -176.22814479 71.44304436 -175.23046875 67.34765625 C-174.80287377 65.71299287 -174.37318374 64.07887609 -173.94140625 62.4453125 C-173.73483398 61.6527002 -173.52826172 60.86008789 -173.31542969 60.04345703 C-169.19121778 44.56217078 -163.26306099 29.75963057 -153.73046875 16.84765625 C-153.20453125 16.08839844 -152.67859375 15.32914063 -152.13671875 14.546875 C-149.2719575 10.50116164 -146.21192201 7.27530496 -142.34375 4.171875 C-140.67369696 2.85695279 -140.67369696 2.85695279 -139.1484375 1.1796875 C-137.73046875 -0.15234375 -137.73046875 -0.15234375 -135.73046875 -0.15234375 C-135.73046875 -0.81234375 -135.73046875 -1.47234375 -135.73046875 -2.15234375 C-134.26513672 -3.24975586 -134.26513672 -3.24975586 -132.22265625 -4.4296875 C-131.48273438 -4.86087891 -130.7428125 -5.29207031 -129.98046875 -5.73632812 C-129.19671875 -6.18298828 -128.41296875 -6.62964844 -127.60546875 -7.08984375 C-126.46464844 -7.7540332 -126.46464844 -7.7540332 -125.30078125 -8.43164062 C-87.49002831 -30.30320547 -34.74008409 -26.39839479 0 0 Z " fill="#161513" transform="translate(370.73046875,77.15234375)"/>
<path d="M0 0 C2.91877372 2.90237611 3.65106411 5.68005777 3.890625 9.6328125 C3.62476645 13.84856958 2.8576036 16.87661438 0.15625 20.16015625 C-12.63097951 30.54317525 -32.4273456 28.71724943 -47.734375 27.6953125 C-55.99193374 26.42826325 -63.75664979 22.56967647 -69.734375 16.6953125 C-71.47394218 13.21617814 -71.3209007 9.49125408 -70.734375 5.6953125 C-68.546875 2.8828125 -68.546875 2.8828125 -65.734375 0.6953125 C-65.00476563 0.045625 -64.27515625 -0.6040625 -63.5234375 -1.2734375 C-60.2970896 -3.62315866 -57.06341812 -4.82429626 -53.296875 -5.9921875 C-52.65427734 -6.20423828 -52.01167969 -6.41628906 -51.34960938 -6.63476562 C-34.53807453 -12.04517836 -14.46066172 -10.87806535 0 0 Z " fill="#130C05" transform="translate(350.734375,159.3046875)"/>
<path d="M0 0 C1.87098782 6.47197045 -1.05562876 11.25882744 -4 17 C-11.41201763 29.46490549 -22.06193866 38.27532486 -35.953125 42.609375 C-44.90589786 44.31791944 -51.91047616 43.10336819 -59.5625 38.4375 C-65.39451342 32.60548658 -68.65804161 26.62827607 -68.69921875 18.32421875 C-67.62206987 14.7437518 -65.93904582 13.28634863 -63 11 C-60.11875523 9.92558204 -57.21270846 9.39231399 -54.1875 8.875 C-53.34582275 8.71523682 -52.50414551 8.55547363 -51.63696289 8.39086914 C-49.91382726 8.0658626 -48.18910218 7.74917003 -46.46289062 7.44091797 C-44.24684434 7.04419121 -42.03724565 6.62476673 -39.828125 6.19140625 C-31.88740034 4.65269153 -23.9219327 3.29048455 -15.93725586 2.00170898 C-11.92614983 1.36144082 -11.92614983 1.36144082 -7.96777344 0.46337891 C-5.29480294 -0.16606253 -2.73440324 -0.06214553 0 0 Z " fill="#AFCFE9" transform="translate(302,219)"/>
<path d="M0 0 C2.56953683 1.85806324 3.88720608 3.25434181 4.64453125 6.359375 C3.82644092 9.54992728 2.49416439 10.64740697 0.01953125 12.796875 C-7.96752912 17.02531872 -16.46491623 17.15846258 -25.29296875 17.171875 C-26.83162598 17.17429199 -26.83162598 17.17429199 -28.40136719 17.17675781 C-36.10740932 17.06405976 -42.77633486 16.02153385 -49.85546875 12.796875 C-50.59539062 12.466875 -51.3353125 12.136875 -52.09765625 11.796875 C-53.98046875 10.796875 -53.98046875 10.796875 -55.98046875 8.796875 C-55.89429626 5.52232023 -55.29333113 4.12992205 -53.04296875 1.734375 C-38.20824246 -7.65086 -15.15035924 -9.20376853 0 0 Z " fill="#F88923" transform="translate(342.98046875,163.203125)"/>
<path d="M0 0 C3.2578125 -0.29296875 3.2578125 -0.29296875 7.125 -0.1875 C9.04699219 -0.14689453 9.04699219 -0.14689453 11.0078125 -0.10546875 C11.99523437 -0.07066406 12.98265625 -0.03585938 14 0 C13.67515625 0.73734375 13.3503125 1.4746875 13.015625 2.234375 C10.50670526 9.06635644 12.18985593 16.16347375 14 23 C5.85956596 25.17423358 -1.5657073 26.45636453 -10 26 C-8.13708481 16.33707408 -5.47322515 8.20983772 0 0 Z " fill="#F1808F" transform="translate(215,230)"/>
<path d="M0 0 C3.042595 2.48211698 4.79218597 4.4137739 5.30859375 8.35546875 C5.53854309 13.40738616 5.58704713 17.09486554 2.375 21.1875 C0.10299557 23.4060455 -0.8923932 23.97364732 -4.0625 24.75 C-7.89030925 23.772687 -9.46857241 21.96538661 -12 19 C-12.33 18.67 -12.66 18.34 -13 18 C-13.1790571 15.92176348 -13.26807871 13.83546283 -13.3125 11.75 C-13.34988281 10.61046875 -13.38726562 9.4709375 -13.42578125 8.296875 C-12.91835313 4.36779852 -11.74671582 2.79257935 -9 0 C-5.81452856 -1.59273572 -3.39809153 -0.76164121 0 0 Z " fill="#0B0905" transform="translate(261,143)"/>
<path d="M0 0 C3.63943853 2.99242723 5.67380568 5.24071691 6.23828125 10.015625 C6.43402942 15.9086753 5.4176971 19.17501586 2 24 C-0.88861709 25.44430855 -2.79647701 25.37688506 -6 25 C-9.63906772 22.00787765 -11.72767678 19.74941717 -12.203125 14.94921875 C-12.30858887 9.86058681 -11.88672548 6.3835461 -9 2 C-5.48175489 -0.34549674 -4.14224306 -0.57991403 0 0 Z " fill="#090704" transform="translate(362,136)"/>
<path d="M0 0 C0.33 0 0.66 0 1 0 C1.09796875 0.74765625 1.1959375 1.4953125 1.296875 2.265625 C2.15835049 8.22236919 2.15835049 8.22236919 4.625 13.625 C8.06960285 15.61924375 11.03898535 15.73593236 15 16 C13 19 13 19 10 20 C9.67 22.64 9.34 25.28 9 28 C8.34 28 7.68 28 7 28 C7.0309375 26.5459375 7.0309375 26.5459375 7.0625 25.0625 C7.35618499 22.12534105 7.35618499 22.12534105 6 21 C6 22.98 6 24.96 6 27 C5.67 27 5.34 27 5 27 C4.87044922 26.00419922 4.87044922 26.00419922 4.73828125 24.98828125 C3.78174263 18.97700641 2.81850592 15.80408362 -2 12 C-1.34 11.34 -0.68 10.68 0 10 C-0.37125 9.46375 -0.7425 8.9275 -1.125 8.375 C-2.34857383 5.05387103 -1.30463011 3.18909583 0 0 Z " fill="#F0E498" transform="translate(349,145)"/>
<path d="M0 0 C0.33 0.66 0.66 1.32 1 2 C0.34 2 -0.32 2 -1 2 C-1 2.99 -1 3.98 -1 5 C-1.639375 5.103125 -2.27875 5.20625 -2.9375 5.3125 C-3.9584375 5.6528125 -3.9584375 5.6528125 -5 6 C-5.33 6.99 -5.66 7.98 -6 9 C-6.66 9 -7.32 9 -8 9 C-8.04125 9.556875 -8.0825 10.11375 -8.125 10.6875 C-9.45151274 14.19328368 -12.09126944 15.73119016 -15 18 C-16.01680311 18.98290968 -17.02738219 19.97334787 -18 21 C-18.99 20.67 -19.98 20.34 -21 20 C-8.13043478 4.87826087 -8.13043478 4.87826087 0 0 Z " fill="#ECDD93" transform="translate(245,79)"/>
<path d="M0 0 C0.33 0.66 0.66 1.32 1 2 C0.443125 2.825 -0.11375 3.65 -0.6875 4.5 C-2.3510337 6.97772801 -3.90294602 9.5032913 -5.4375 12.0625 C-7.60225357 15.56509817 -9.96666785 18.22666775 -13 21 C-13.99 20.67 -14.98 20.34 -16 20 C-14.2719625 17.79077517 -12.54260488 15.58260494 -10.8125 13.375 C-10.32974609 12.75753906 -9.84699219 12.14007813 -9.34960938 11.50390625 C-6.29758358 7.61206127 -3.18457039 3.78422441 0 0 Z " fill="#E9DC8E" transform="translate(196,162)"/>
<path d="M0 0 C-1.04800781 0.70576172 -1.04800781 0.70576172 -2.1171875 1.42578125 C-3.48230469 2.35970703 -3.48230469 2.35970703 -4.875 3.3125 C-5.77992188 3.92738281 -6.68484375 4.54226562 -7.6171875 5.17578125 C-10.19971385 6.94913949 -10.19971385 6.94913949 -12 10 C-12.24187651 12.74518321 -12.24187651 12.74518321 -12.125 15.6875 C-12.10695313 16.68136719 -12.08890625 17.67523438 -12.0703125 18.69921875 C-12.04710937 19.45847656 -12.02390625 20.21773437 -12 21 C-12.66 21 -13.32 21 -14 21 C-14.3421877 13.16770375 -14.41441163 7.71513987 -9.6875 1.1875 C-6.70862142 -0.90874789 -3.29370778 -1.64685389 0 0 Z " fill="#E0D288" transform="translate(293,155)"/>
<path d="M0 0 C3.4375 0.1875 3.4375 0.1875 4.4375 1.1875 C4.90247887 5.51538028 4.880126 9.17578342 3.125 13.1875 C1.4375 15.1875 1.4375 15.1875 -1.5625 16.1875 C0.3125 11.3125 0.3125 11.3125 1.4375 10.1875 C1.80510731 7.85932036 2.13991581 5.5256615 2.4375 3.1875 C-0.43663125 2.85352213 -0.43663125 2.85352213 -3.5625 3.1875 C-5.47506712 5.06827873 -5.47506712 5.06827873 -6.5625 7.1875 C-5.78470325 2.26145393 -5.43290891 0.28594257 0 0 Z " fill="#EADB91" transform="translate(227.5625,199.8125)"/>
<path d="M0 0 C0.99 0.66 1.98 1.32 3 2 C3.4375 4.375 3.4375 4.375 3 7 C0.04677087 11.18374127 -4.2032367 12.71769694 -9 14 C-12 14.1875 -12 14.1875 -14 14 C-13.67 13.34 -13.34 12.68 -13 12 C-11.9275 11.731875 -10.855 11.46375 -9.75 11.1875 C-5.56024383 9.86074388 -3.92821109 8.17920061 -1 5 C-0.34 5 0.32 5 1 5 C0.67 3.35 0.34 1.7 0 0 Z " fill="#DF8630" transform="translate(344,165)"/>
<path d="M0 0 C1.98 0 3.96 0 6 0 C7.36687861 4.48170501 6.55234071 6.95877669 4.6875 11.1875 C4.23761719 12.23292969 3.78773438 13.27835938 3.32421875 14.35546875 C2 17 2 17 0 19 C-0.33 17.68 -0.66 16.36 -1 15 C-0.34 15 0.32 15 1 15 C1.12375 13.9275 1.2475 12.855 1.375 11.75 C1.90617179 8.56296928 2.56073125 6.77573258 4 4 C3.04134491 1.66924071 3.04134491 1.66924071 0 0 Z " fill="#AAC1D0" transform="translate(296,219)"/>
<path d="M0 0 C0.66 0.33 1.32 0.66 2 1 C1.25 6.75 1.25 6.75 -1 9 C-1.99 9 -2.98 9 -4 9 C-4.66 9.66 -5.32 10.32 -6 11 C-6 8.36 -6 5.72 -6 3 C-4.03533587 1.93224776 -2.03144641 0.93446535 0 0 Z " fill="#060303" transform="translate(233,230)"/>
<path d="M0 0 C-1.44253657 3.36591866 -3.33264727 5.51047079 -6 8 C-5.34 8 -4.68 8 -4 8 C-2.375 9.5 -2.375 9.5 -1 11 C-1.33 11.66 -1.66 12.32 -2 13 C-4.4375 11.8125 -4.4375 11.8125 -7 10 C-7.8125 7.3125 -7.8125 7.3125 -8 5 C-2.25 0 -2.25 0 0 0 Z " fill="#CF8132" transform="translate(295,163)"/>
<path d="M0 0 C0.66 0.33 1.32 0.66 2 1 C0.33846988 6.85659906 -1.47041916 12.4590134 -4 18 C-4.66 17.67 -5.32 17.34 -6 17 C-5.25 10.375 -5.25 10.375 -3 7 C-2.34 7 -1.68 7 -1 7 C-0.67 4.69 -0.34 2.38 0 0 Z " fill="#EADB93" transform="translate(401,274)"/>
<path d="M0 0 C0.89203125 0.01804687 1.7840625 0.03609375 2.703125 0.0546875 C3.71632812 0.08949219 3.71632812 0.08949219 4.75 0.125 C4.75 0.455 4.75 0.785 4.75 1.125 C3.82767578 1.21974609 3.82767578 1.21974609 2.88671875 1.31640625 C-1.93673839 1.89041311 -1.93673839 1.89041311 -5.515625 4.81640625 C-6.44165553 6.95391351 -6.44165553 6.95391351 -7.25 10.125 C-9.4019437 6.89708445 -9.45086443 5.84099191 -9.25 2.125 C-6.03817851 0.21891902 -3.71117397 -0.09766247 0 0 Z " fill="#E2D68A" transform="translate(203.25,263.875)"/>
<path d="M0 0 C0.66 0.99 1.32 1.98 2 3 C1.01 3.33 0.02 3.66 -1 4 C-1.33 5.65 -1.66 7.3 -2 9 C-3.57914015 9.53341184 -5.16354387 10.05125763 -6.75 10.5625 C-7.63171875 10.85253906 -8.5134375 11.14257812 -9.421875 11.44140625 C-12.07834316 12.01697435 -13.47031106 11.89248371 -16 11 C-14.77023437 10.56300781 -14.77023437 10.56300781 -13.515625 10.1171875 C-5.06150561 6.99548947 -5.06150561 6.99548947 0 0 Z " fill="#D9CE87" transform="translate(353,174)"/>
<path d="M0 0 C0.33 0.66 0.66 1.32 1 2 C3.02463255 2.65213292 3.02463255 2.65213292 5 3 C3.79618552 5.49361571 2.54571278 7.68143083 1 10 C0.67 9.01 0.34 8.02 0 7 C-0.33 8.32 -0.66 9.64 -1 11 C-1.66 11 -2.32 11 -3 11 C-2.44894091 7.0507432 -1.61064629 3.65079826 0 0 Z " fill="#E2D285" transform="translate(211,122)"/>
<path d="M0 0 C3.69900008 0.88776002 7.34550461 1.94581864 11 3 C10.67 3.99 10.34 4.98 10 6 C9.38511719 5.91621094 8.77023437 5.83242187 8.13671875 5.74609375 C7.32847656 5.64425781 6.52023437 5.54242188 5.6875 5.4375 C4.88699219 5.33308594 4.08648437 5.22867188 3.26171875 5.12109375 C0.83182884 4.85244822 0.83182884 4.85244822 -2 6 C-1.49396008 3.83125748 -1.00016187 2.00032373 0 0 Z " fill="#E4D88B" transform="translate(253,138)"/>
<path d="M0 0 C0.79921875 0.11085938 1.5984375 0.22171875 2.421875 0.3359375 C3.32679688 0.47902344 3.32679688 0.47902344 4.25 0.625 C3.26 2.11 3.26 2.11 2.25 3.625 C-1.98998354 4.01759107 -5.11733941 3.94990278 -8.75 1.625 C-5.5750906 -0.2828584 -3.64414789 -0.5359041 0 0 Z " fill="#E9D887" transform="translate(279.75,66.375)"/>
<path d="M0 0 C0.99 0.495 0.99 0.495 2 1 C2 1.66 2 2.32 2 3 C3.43534841 3.2226746 4.87345525 3.42761906 6.3125 3.625 C7.11300781 3.74101562 7.91351563 3.85703125 8.73828125 3.9765625 C11.28723215 4.21533407 11.28723215 4.21533407 14 2 C13.625 3.9375 13.625 3.9375 13 6 C10.21084611 7.39457694 8.09726736 7.1821922 5 7 C2.125 6 2.125 6 0 5 C0 3.35 0 1.7 0 0 Z " fill="#E7DB90" transform="translate(249,162)"/>
<path d="M0 0 C2.97 0.495 2.97 0.495 6 1 C6 3.31 6 5.62 6 8 C5.01 8.495 5.01 8.495 4 9 C2.875 5.25 2.875 5.25 4 3 C1.83125748 3.50603992 0.00032373 3.99983813 -2 5 C-1.34 3.35 -0.68 1.7 0 0 Z " fill="#352D15" transform="translate(224,202)"/>
<path d="M0 0 C2 2 2 2 2 5 C2.99 5.33 3.98 5.66 5 6 C5.12375 7.134375 5.2475 8.26875 5.375 9.4375 C5.684375 11.2009375 5.684375 11.2009375 6 13 C6.66 13.33 7.32 13.66 8 14 C7.01 14 6.02 14 5 14 C3.96958487 12.04669132 2.9509107 10.08718472 1.9375 8.125 C1.08478516 6.48917969 1.08478516 6.48917969 0.21484375 4.8203125 C-0.18605469 3.88960937 -0.58695313 2.95890625 -1 2 C-0.67 1.34 -0.34 0.68 0 0 Z " fill="#E6D991" transform="translate(174,229)"/>
<path d="M0 0 C0.33 0.99 0.66 1.98 1 3 C1.66 3 2.32 3 3 3 C1.72278474 7.99275057 -0.17330957 10.57611908 -4 14 C-4.66 13.67 -5.32 13.34 -6 13 C-5.071875 12.01 -5.071875 12.01 -4.125 11 C-1.50125518 7.29588966 -0.89913658 4.42075485 0 0 Z " fill="#CCC27B" transform="translate(203,148)"/>
<path d="M0 0 C0.33 0 0.66 0 1 0 C1.13277344 0.77085937 1.26554687 1.54171875 1.40234375 2.3359375 C1.57894531 3.33882812 1.75554687 4.34171875 1.9375 5.375 C2.19853516 6.87160156 2.19853516 6.87160156 2.46484375 8.3984375 C2.87712062 10.96909656 2.87712062 10.96909656 4 13 C2.125 13.625 2.125 13.625 0 14 C-0.66 13.34 -1.32 12.68 -2 12 C-1.34 11.34 -0.68 10.68 0 10 C-0.37125 9.46375 -0.7425 8.9275 -1.125 8.375 C-2.34857383 5.05387103 -1.30463011 3.18909583 0 0 Z " fill="#D8CE86" transform="translate(349,145)"/>
<path d="M0 0 C0.33 0 0.66 0 1 0 C0.63076923 7.26153846 0.63076923 7.26153846 -2.5625 11 C-3.366875 11.66 -4.17125 12.32 -5 13 C-5.33 12.34 -5.66 11.68 -6 11 C-4.78515625 8.3984375 -4.78515625 8.3984375 -3.0625 5.375 C-2.21365234 3.87066406 -2.21365234 3.87066406 -1.34765625 2.3359375 C-0.90292969 1.56507812 -0.45820313 0.79421875 0 0 Z " fill="#D6CB87" transform="translate(219,106)"/>
<path d="M0 0 C1.94566951 3.47547073 2.07637127 5.12506344 1 9 C1.99 9 2.98 9 4 9 C4.33 10.98 4.66 12.96 5 15 C4.01 15.495 4.01 15.495 3 16 C-0.39366878 10.62669111 -0.32712342 6.13053511 0 0 Z " fill="#A1C1D0" transform="translate(234,235)"/>
<path d="M0 0 C5.44208234 0.34013015 8.93668198 3.70296528 13 7 C10.92446352 7.5534764 9.15634036 8 7 8 C4.375 5.625 4.375 5.625 2 3 C2 2.34 2 1.68 2 1 C1.34 0.67 0.68 0.34 0 0 Z " fill="#E5D98E" transform="translate(355,79)"/>
<path d="M0 0 C4.75 1.875 4.75 1.875 7 3 C7 3.66 7 4.32 7 5 C9.475 5.99 9.475 5.99 12 7 C12 7.99 12 8.98 12 10 C7.72754004 7.2534186 3.81413925 4.36007505 0 1 C0 0.67 0 0.34 0 0 Z " fill="#E1D48F" transform="translate(216,306)"/>
<path d="M0 0 C1.65 0.33 3.3 0.66 5 1 C2.19195732 3.96404505 -0.18315774 6.44499019 -4 8 C-3.40072174 4.64404172 -2.15377564 2.62198774 0 0 Z " fill="#A9C1D3" transform="translate(280,249)"/>
<path d="M0 0 C2.40072955 2.88087546 4.47291037 5.56404834 6 9 C5.01 9.495 5.01 9.495 4 10 C3.01 9.67 2.02 9.34 1 9 C-0.4783226 6.04335481 -0.06032783 3.25770263 0 0 Z " fill="#E4D78D" transform="translate(404,189)"/>
<path d="M0 0 C9.41002278 0.96355353 9.41002278 0.96355353 14 2 C13.67 2.66 13.34 3.32 13 4 C3.40546697 3.40546697 3.40546697 3.40546697 0 0 Z " fill="#D7C888" transform="translate(258,329)"/>
<path d="M0 0 C0 0.66 0 1.32 0 2 C-3.96697886 3.80317221 -7.6822542 4.49202991 -12 5 C-9.56521739 1.22608696 -9.56521739 1.22608696 -7.125 0.25 C-4.73068929 -0.03168361 -2.40866079 -0.06690724 0 0 Z " fill="#A4BBC9" transform="translate(248,229)"/>
<path d="M0 0 C1.65 0 3.3 0 5 0 C4.67 2.64 4.34 5.28 4 8 C3.34 8 2.68 8 2 8 C2.020625 7.030625 2.04125 6.06125 2.0625 5.0625 C2.35618499 2.12534105 2.35618499 2.12534105 1 1 C1 2.98 1 4.96 1 7 C0.67 7 0.34 7 0 7 C0 4.69 0 2.38 0 0 Z " fill="#E3D17E" transform="translate(354,165)"/>
<path d="M0 0 C1.65 1.65 3.3 3.3 5 5 C4.67 5.99 4.34 6.98 4 8 C2.35 7.67 0.7 7.34 -1 7 C-1 6.01 -1 5.02 -1 4 C-0.34 4.33 0.32 4.66 1 5 C0.67 3.35 0.34 1.7 0 0 Z " fill="#EDDD92" transform="translate(412,201)"/>
<path d="M0 0 C-1.0975223 2.99324263 -1.67682892 3.84610901 -4.625 5.25 C-5.40875 5.4975 -6.1925 5.745 -7 6 C-6.67 4.35 -6.34 2.7 -6 1 C-3.92446352 0.4465236 -2.15634036 0 0 0 Z " fill="#E4D88D" transform="translate(377,314)"/>
<path d="M0 0 C0.66 1.32 1.32 2.64 2 4 C-0.78407039 7.08236365 -1.80825346 7.95206337 -6 9 C-4.02 6.03 -2.04 3.06 0 0 Z " fill="#E2D38B" transform="translate(301,243)"/>
<path d="M0 0 C-4.455 2.97 -4.455 2.97 -9 6 C-8.67 4.02 -8.34 2.04 -8 0 C-2.25 -1.125 -2.25 -1.125 0 0 Z " fill="#E5D693" transform="translate(293,155)"/>
<path d="M0 0 C3.43752007 1.5277867 6.18953688 3.50181056 9 6 C9 6.66 9 7.32 9 8 C5.08158173 6.69386058 2.67359191 5.16870152 0 2 C0 1.34 0 0.68 0 0 Z " fill="#E0D591" transform="translate(422,241)"/>
<path d="M0 0 C0.33 0.66 0.66 1.32 1 2 C0.34 2 -0.32 2 -1 2 C-1 2.99 -1 3.98 -1 5 C-2.96466413 6.06775224 -4.96855359 7.06553465 -7 8 C-7.66 7.67 -8.32 7.34 -9 7 C-6.03 4.69 -3.06 2.38 0 0 Z " fill="#D7CC8F" transform="translate(245,79)"/>
<path d="M0 0 C0.33 0 0.66 0 1 0 C1 2.97 1 5.94 1 9 C-0.32 9.33 -1.64 9.66 -3 10 C-2.01 6.7 -1.02 3.4 0 0 Z " fill="#D5CA85" transform="translate(310,223)"/>
<path d="M0 0 C0 0.66 0 1.32 0 2 C0.99 2.33 1.98 2.66 3 3 C2.01 4.485 2.01 4.485 1 6 C0.62875 5.525625 0.2575 5.05125 -0.125 4.5625 C-2.62646962 2.47794198 -4.81593418 2.35378509 -8 2 C-4.91190305 0.23537317 -3.76687864 0 0 0 Z " fill="#E1D38F" transform="translate(308,210)"/>
<path d="M0 0 C0.33 0 0.66 0 1 0 C1 3.3 1 6.6 1 10 C-0.32 9.34 -1.64 8.68 -3 8 C-1.125 1.125 -1.125 1.125 0 0 Z " fill="#D8CA83" transform="translate(247,147)"/>
<path d="M0 0 C0.66 0.33 1.32 0.66 2 1 C0.02 3.97 0.02 3.97 -2 7 C-2.99 6.67 -3.98 6.34 -5 6 C-5 5.34 -5 4.68 -5 4 C-4.34 4 -3.68 4 -3 4 C-3 3.01 -3 2.02 -3 1 C-2.01 0.67 -1.02 0.34 0 0 Z " fill="#E3D48A" transform="translate(391,297)"/>
<path d="M0 0 C3.625 -0.1875 3.625 -0.1875 7 0 C7.33 0.99 7.66 1.98 8 3 C6.68 3.33 5.36 3.66 4 4 C3.67 3.34 3.34 2.68 3 2 C1.35 2.33 -0.3 2.66 -2 3 C-1.34 2.01 -0.68 1.02 0 0 Z " fill="#F5E391" transform="translate(294,252)"/>
<path d="M0 0 C-0.33 0.66 -0.66 1.32 -1 2 C-3.64 2 -6.28 2 -9 2 C-9 1.34 -9 0.68 -9 0 C-5.93109813 -1.53445094 -3.29905734 -0.54984289 0 0 Z " fill="#F0E297" transform="translate(441,249)"/>
<path d="M0 0 C0.66 0.33 1.32 0.66 2 1 C0.55746343 4.36591866 -1.33264727 6.51047079 -4 9 C-4 7.35 -4 5.7 -4 4 C-3.34 4 -2.68 4 -2 4 C-1.34 2.68 -0.68 1.36 0 0 Z " fill="#FC8394" transform="translate(216,232)"/>
<path d="M0 0 C0.33 0.66 0.66 1.32 1 2 C-2.47307692 7.82980769 -2.47307692 7.82980769 -5.140625 8.69140625 C-5.75421875 8.79324219 -6.3678125 8.89507812 -7 9 C-6.02180976 7.68677212 -5.0424189 6.37443848 -4.0625 5.0625 C-3.51722656 4.33160156 -2.97195312 3.60070312 -2.41015625 2.84765625 C-1 1 -1 1 0 0 Z " fill="#D8CD87" transform="translate(196,162)"/>
<path d="M0 0 C-1.29299694 2.88437779 -2.65941363 4.87219421 -5 7 C-5.33 5.68 -5.66 4.36 -6 3 C-2.25 0 -2.25 0 0 0 Z " fill="#E3862E" transform="translate(295,163)"/>
<path d="M0 0 C1.485 0.99 1.485 0.99 3 2 C2.67 3.65 2.34 5.3 2 7 C1.34 6.67 0.68 6.34 0 6 C0 4.02 0 2.04 0 0 Z " fill="#141207" transform="translate(440,236)"/>
<path d="M0 0 C1.37562854 1.28965176 2.70766393 2.62689293 4 4 C4 4.66 4 5.32 4 6 C2.35 5.67 0.7 5.34 -1 5 C-0.67 3.35 -0.34 1.7 0 0 Z " fill="#DAD087" transform="translate(430,224)"/>
</svg>
